# xmcd
#
# Track frame offsets:
#	150
#	18405
#	35097
#	48328
#	64528
#	84500
#	111488
#	128972
#	141904
#	156373
#	168615
#	185520
#	204894
#	223852
#	242146
#	258757
#	272652
#
# Disc length: 3832 seconds
# Revision: 2
# Processed by: cddbd v1.5.2PL0 Copyright (c) Steve Scherf et al.
# Submitted via: dBpowerAMP V12.0
#
DISCID=fb0ef611
DTITLE=Christmas - Mary, Did You Know?: 17 Inspirational Christmas Songs From Today's Top Country Artists
DYEAR=2007
DGENRE=Christmas
TTITLE0=Reason For The Season - Lonestar
TTITLE1=O Holy Night - LeAnn Rimes
TTITLE2=O Come, O Come Emmanuel - Diamond Rio
TTITLE3=Go Tell It On The Mountain - Randy Travis
TTITLE4=The First Noel - Josh Turner
TTITLE5=Breath Of Heaven (Mary's Song) - Vince Gill
TTITLE6=Mary, Did You Know? - Kenny Rogers and Wynonna
TTITLE7=Away In A Manger - Joe Nichols
TTITLE8=O Little Town Of Bethlehem - Alabama
TTITLE9=What Child Is This? - Jo Dee Messina
TTITLE10=The Gift - Collin Raye
TTITLE11=Tennessee Christmas - Steve Wariner
TTITLE12=I Heard The Bells On Christmas Day - Travis Tritt
TTITLE13=Little Drummer Boy - Sawyer Brown
TTITLE14=O Come All Ye Faithful - Clay Walker
TTITLE15=The Christ (A Song For Joseph) - Billy Dean
TTITLE16=Silent Night - The Judds
EXTD=
EXTT0=
EXTT1=
EXTT2=
EXTT3=
EXTT4=
EXTT5=
EXTT6=
EXTT7=
EXTT8=
EXTT9=
EXTT10=
EXTT11=
EXTT12=
EXTT13=
EXTT14=
EXTT15=
EXTT16=
PLAYORDER=
